<?xml version="1.0" encoding="UTF-8" standalone="no"?>
<!DOCTYPE svg PUBLIC "-//W3C//DTD SVG 1.0//EN" "http://www.w3.org/TR/2001/PR-SVG-20010719/DTD/svg10.dtd">
<svg width="69cm" height="51cm" viewBox="-2 17 1362 1006" xmlns="http://www.w3.org/2000/svg" xmlns:xlink="http://www.w3.org/1999/xlink">
  <g>
    <path style="fill: #0078aa" d="M 168 88.3548 L 167.943,87.7535 L 167.819,87.1523 L 167.609,86.5606 L 167.313,85.9784 L 166.912,85.3867 L 166.444,84.814 L 165.881,84.2509 L 165.251,83.6974 L 164.526,83.1534 L 163.724,82.6285 L 162.856,82.1227 L 161.911,81.6073 L 160.89,81.1206 L 159.802,80.6625 L 158.637,80.2234 L 157.416,79.8035 L 156.147,79.3931 L 154.81,79.0209 L 153.427,78.6678 L 151.985,78.3338 L 150.497,78.0284 L 148.96,77.7707 L 147.395,77.5034 L 145.811,77.2935 L 144.179,77.0931 L 142.518,76.9404 L 140.838,76.7972 L 139.139,76.7018 L 137.441,76.6063 L 135.723,76.5777 L 134.005,76.5491 L 134.005,76.5491 L 132.277,76.5777 L 130.559,76.6063 L 128.861,76.7018 L 127.162,76.7972 L 125.482,76.9404 L 123.821,77.0931 L 122.189,77.2935 L 120.596,77.5034 L 119.03,77.7707 L 117.503,78.0284 L 116.015,78.3338 L 114.573,78.6678 L 113.19,79.0209 L 111.853,79.3931 L 110.575,79.8035 L 109.363,80.2234 L 108.198,80.6625 L 107.11,81.1206 L 106.089,81.6073 L 105.144,82.1227 L 104.276,82.6285 L 103.474,83.1534 L 102.749,83.6974 L 102.119,84.2509 L 101.556,84.814 L 101.088,85.3867 L 100.687,85.9784 L 100.382,86.5606 L 100.162,87.1523 L 100.048,87.7535 L 100,88.3548 L 100,88.3548 L 100.048,88.9465 L 100.162,89.5478 L 100.382,90.1395 L 100.687,90.7217 L 101.088,91.3134 L 101.556,91.886 L 102.119,92.4491 L 102.749,93.0027 L 103.474,93.5467 L 104.276,94.0716 L 105.144,94.5965 L 106.089,95.0928 L 107.11,95.5795 L 108.198,96.0376 L 109.363,96.4957 L 110.575,96.9156 L 111.853,97.3069 L 113.19,97.6887 L 114.573,98.0323 L 116.015,98.3663 L 117.503,98.6717 L 119.03,98.9485 L 120.596,99.1966 L 122.189,99.4257 L 123.821,99.607 L 125.482,99.7788 L 127.162,99.9029 L 128.861,100.017 L 130.559,100.094 L 132.277,100.141 L 134.005,100.151 L 134.005,100.151 L 135.723,100.141 L 137.441,100.094 L 139.139,100.017 L 140.838,99.9029 L 142.518,99.7788 L 144.179,99.607 L 145.811,99.4257 L 147.395,99.1966 L 148.96,98.9485 L 150.497,98.6717 L 151.985,98.3663 L 153.427,98.0323 L 154.81,97.6887 L 156.147,97.3069 L 157.416,96.9156 L 158.637,96.4957 L 159.802,96.0376 L 160.89,95.5795 L 161.911,95.0928 L 162.856,94.5965 L 163.724,94.0716 L 164.526,93.5467 L 165.251,93.0027 L 165.881,92.4491 L 166.444,91.886 L 166.912,91.3134 L 167.313,90.7217 L 167.609,90.1395 L 167.819,89.5478 L 167.943,88.9465 L 168,88.3548z"/>
    <path style="fill: none; fill-opacity:0; stroke-width: 0.02; stroke: #aae6ff" d="M 167.599 88.1639 L 167.551,87.5627 L 167.437,86.99 L 167.217,86.3983 L 166.922,85.8257 L 166.53,85.2531 L 166.034,84.69 L 165.519,84.146 L 164.87,83.5924 L 164.154,83.058 L 163.362,82.5235 L 162.484,82.0272 L 161.548,81.5309 L 160.537,81.0538 L 159.458,80.5956 L 158.313,80.1566 L 157.091,79.7558 L 155.812,79.374 L 154.495,78.9827 L 153.121,78.6582 L 151.69,78.3147 L 150.201,78.0188 L 148.693,77.7516 L 147.147,77.5034 L 145.553,77.2935 L 143.94,77.0931 L 142.279,76.9404 L 140.619,76.7972 L 138.929,76.7018 L 137.231,76.6349 L 135.522,76.5777 L 133.814,76.5777 L 133.814,76.5777 L 132.086,76.5777 L 130.388,76.6349 L 128.679,76.7018 L 127.009,76.7972 L 125.339,76.9404 L 123.688,77.0931 L 122.065,77.2935 L 120.472,77.5034 L 118.916,77.7516 L 117.408,78.0188 L 115.919,78.3147 L 114.488,78.6582 L 113.123,78.9827 L 111.796,79.374 L 110.517,79.7558 L 109.305,80.1566 L 108.17,80.5956 L 107.091,81.0538 L 106.07,81.5309 L 105.116,82.0272 L 104.266,82.5235 L 103.464,83.058 L 102.749,83.5924 L 102.119,84.146 L 101.565,84.69 L 101.088,85.2531 L 100.706,85.8257 L 100.401,86.3983 L 100.181,86.99 L 100.057,87.5627 L 100.01,88.1639 L 100.01,88.1639 L 100.057,88.7461 L 100.181,89.3474 L 100.401,89.9105 L 100.706,90.4926 L 101.088,91.0748 L 101.565,91.6284 L 102.119,92.1819 L 102.749,92.7354 L 103.464,93.2604 L 104.266,93.7948 L 105.116,94.3006 L 106.07,94.7778 L 107.091,95.2646 L 108.17,95.7322 L 109.305,96.1521 L 110.517,96.5625 L 111.796,96.9538 L 113.123,97.3356 L 114.488,97.6696 L 115.919,97.9941 L 117.408,98.2995 L 118.916,98.5667 L 120.472,98.8053 L 122.065,99.0344 L 123.688,99.2253 L 125.339,99.378 L 127.009,99.5116 L 128.679,99.607 L 130.388,99.6929 L 132.086,99.7406 L 133.814,99.7502 L 133.814,99.7502 L 135.522,99.7406 L 137.231,99.6929 L 138.929,99.607 L 140.619,99.5116 L 142.279,99.378 L 143.94,99.2253 L 145.553,99.0344 L 147.147,98.8053 L 148.693,98.5667 L 150.201,98.2995 L 151.69,97.9941 L 153.121,97.6696 L 154.495,97.3356 L 155.812,96.9538 L 157.091,96.5625 L 158.313,96.1521 L 159.458,95.7322 L 160.537,95.2646 L 161.548,94.7778 L 162.484,94.3006 L 163.362,93.7948 L 164.154,93.2604 L 164.87,92.7354 L 165.519,92.1819 L 166.034,91.6284 L 166.53,91.0748 L 166.922,90.4926 L 167.217,89.9105 L 167.437,89.3474 L 167.551,88.7461 L 167.599,88.1639"/>
    <path style="fill: #0078aa" d="M 100.01 72.0062 L 100.01,88.5743 L 167.599,88.5743 L 167.599,72.0062 L 100.01,72.0062z"/>
    <path style="fill: #00b4ff" d="M 168 71.8058 L 167.943,71.2045 L 167.819,70.5937 L 167.609,70.0115 L 167.313,69.4198 L 166.912,68.8281 L 166.444,68.2554 L 165.881,67.6924 L 165.251,67.1484 L 164.526,66.5948 L 163.724,66.0794 L 162.856,65.5545 L 161.911,65.0582 L 160.89,64.562 L 159.802,64.1134 L 158.637,63.6648 L 157.416,63.2354 L 156.147,62.8345 L 154.81,62.4623 L 153.427,62.1092 L 151.985,61.7847 L 150.497,61.4888 L 148.96,61.2025 L 147.395,60.9544 L 145.811,60.7253 L 144.179,60.5345 L 142.518,60.3722 L 140.838,60.2386 L 139.139,60.1336 L 137.441,60.0573 L 135.723,60.0095 L 134.005,60 L 134.005,60 L 132.277,60.0095 L 130.559,60.0573 L 128.861,60.1336 L 127.162,60.2386 L 125.482,60.3722 L 123.821,60.5345 L 122.189,60.7253 L 120.596,60.9544 L 119.03,61.2025 L 117.503,61.4888 L 116.015,61.7847 L 114.573,62.1092 L 113.19,62.4623 L 111.853,62.8345 L 110.575,63.2354 L 109.363,63.6648 L 108.198,64.1134 L 107.11,64.562 L 106.089,65.0582 L 105.144,65.5545 L 104.276,66.0794 L 103.474,66.5948 L 102.749,67.1484 L 102.119,67.6924 L 101.556,68.2554 L 101.088,68.8281 L 100.687,69.4198 L 100.382,70.0115 L 100.162,70.5937 L 100.048,71.2045 L 100,71.8058 L 100,71.8058 L 100.048,72.3975 L 100.162,72.9987 L 100.382,73.5905 L 100.687,74.1631 L 101.088,74.7548 L 101.556,75.3274 L 102.119,75.8905 L 102.749,76.4536 L 103.474,76.9976 L 104.276,77.513 L 105.144,78.0284 L 106.089,78.5437 L 107.11,79.0209 L 108.198,79.479 L 109.363,79.9276 L 110.575,80.3475 L 111.853,80.7579 L 113.19,81.1206 L 114.573,81.4737 L 116.015,81.8077 L 117.503,82.1227 L 119.03,82.3804 L 120.596,82.638 L 122.189,82.8671 L 123.821,83.0484 L 125.482,83.2107 L 127.162,83.3443 L 128.861,83.4493 L 130.559,83.5352 L 132.277,83.5829 L 134.005,83.5924 L 134.005,83.5924 L 135.723,83.5829 L 137.441,83.5352 L 139.139,83.4493 L 140.838,83.3443 L 142.518,83.2107 L 144.179,83.0484 L 145.811,82.8671 L 147.395,82.638 L 148.96,82.3804 L 150.497,82.1227 L 151.985,81.8077 L 153.427,81.4737 L 154.81,81.1206 L 156.147,80.7579 L 157.416,80.3475 L 158.637,79.9276 L 159.802,79.479 L 160.89,79.0209 L 161.911,78.5437 L 162.856,78.0284 L 163.724,77.513 L 164.526,76.9976 L 165.251,76.4536 L 165.881,75.8905 L 166.444,75.3274 L 166.912,74.7548 L 167.313,74.1631 L 167.609,73.5905 L 167.819,72.9987 L 167.943,72.3975 L 168,71.8058z"/>
    <path style="fill: none; fill-opacity:0; stroke-width: 0.02; stroke: #aae6ff" d="M 167.599 71.6053 L 167.551,71.0041 L 167.437,70.4314 L 167.217,69.8493 L 166.922,69.2671 L 166.53,68.704 L 166.034,68.1218 L 165.519,67.5874 L 164.87,67.0338 L 164.154,66.5089 L 163.362,65.9649 L 162.484,65.4782 L 161.548,64.9724 L 160.537,64.4952 L 159.458,64.0561 L 158.313,63.598 L 157.091,63.2163 L 155.812,62.8059 L 154.495,62.4337 L 153.121,62.0901 L 151.69,61.7561 L 150.201,61.4602 L 148.693,61.193 L 147.147,60.9544 L 145.553,60.7253 L 143.94,60.5345 L 142.279,60.3818 L 140.619,60.2386 L 138.929,60.1432 L 137.231,60.0668 L 135.522,60.0191 L 133.814,60.0095 L 133.814,60.0095 L 132.086,60.0191 L 130.388,60.0668 L 128.679,60.1432 L 127.009,60.2386 L 125.339,60.3818 L 123.688,60.5345 L 122.065,60.7253 L 120.472,60.9544 L 118.916,61.193 L 117.408,61.4602 L 115.919,61.7561 L 114.488,62.0901 L 113.123,62.4337 L 111.796,62.8059 L 110.517,63.2163 L 109.305,63.598 L 108.17,64.0561 L 107.091,64.4952 L 106.07,64.9724 L 105.116,65.4782 L 104.266,65.9649 L 103.464,66.5089 L 102.749,67.0338 L 102.119,67.5874 L 101.565,68.1218 L 101.088,68.704 L 100.706,69.2671 L 100.401,69.8493 L 100.181,70.4314 L 100.057,71.0041 L 100.01,71.6053 L 100.01,71.6053 L 100.057,72.1971 L 100.181,72.7792 L 100.401,73.3614 L 100.706,73.934 L 101.088,74.5067 L 101.565,75.0793 L 102.119,75.6233 L 102.749,76.1768 L 103.464,76.7018 L 104.266,77.2362 L 105.116,77.742 L 106.07,78.2192 L 107.091,78.706 L 108.17,79.1641 L 109.305,79.5935 L 110.517,80.0039 L 111.796,80.3952 L 113.123,80.7674 L 114.488,81.111 L 115.919,81.4451 L 117.408,81.76 L 118.916,82.0081 L 120.472,82.2658 L 122.065,82.4853 L 123.688,82.6667 L 125.339,82.8385 L 127.009,82.9721 L 128.679,83.058 L 130.388,83.1439 L 132.086,83.1916 L 133.814,83.2011 L 133.814,83.2011 L 135.522,83.1916 L 137.231,83.1439 L 138.929,83.058 L 140.619,82.9721 L 142.279,82.8385 L 143.94,82.6667 L 145.553,82.4853 L 147.147,82.2658 L 148.693,82.0081 L 150.201,81.76 L 151.69,81.4451 L 153.121,81.111 L 154.495,80.7674 L 155.812,80.3952 L 157.091,80.0039 L 158.313,79.5935 L 159.458,79.1641 L 160.537,78.706 L 161.548,78.2192 L 162.484,77.742 L 163.362,77.2362 L 164.154,76.7018 L 164.87,76.1768 L 165.519,75.6233 L 166.034,75.0793 L 166.53,74.5067 L 166.922,73.934 L 167.217,73.3614 L 167.437,72.7792 L 167.551,72.1971 L 167.599,71.6053"/>
    <path style="fill: #000000" d="M 134.635 69.1239 L 139.578,70.7846 L 151.537,65.8027 L 156.891,67.4538 L 153.999,63.3308 L 139.998,63.3308 L 145.753,64.562 L 134.635,69.1239z"/>
    <path style="fill: #000000" d="M 132.564 73.6764 L 127.629,72.0062 L 116.081,76.9976 L 110.317,75.3274 L 113.19,79.8799 L 127.629,79.8799 L 121.436,78.2192 L 132.564,73.6764z"/>
    <path style="fill: #000000" d="M 111.548 64.562 L 116.482,62.9109 L 128.45,67.4538 L 133.814,66.2226 L 130.932,70.3455 L 116.902,70.3455 L 122.667,69.1239 L 111.548,64.562z"/>
    <path style="fill: #000000" d="M 156.061 78.6296 L 151.107,80.2902 L 139.578,75.3274 L 133.814,76.9976 L 136.696,72.8365 L 151.107,72.8365 L 144.932,74.0772 L 156.061,78.6296z"/>
    <path style="fill: #ffffff" d="M 135.045 69.5343 L 139.998,71.1854 L 151.928,66.2226 L 157.301,67.8832 L 154.41,63.7316 L 140.399,63.7316 L 146.173,64.9628 L 135.045,69.5343z"/>
    <path style="fill: #ffffff" d="M 132.984 74.0772 L 128.021,72.4261 L 116.482,77.3889 L 110.718,75.7378 L 113.6,80.2902 L 128.021,80.2902 L 121.846,78.6296 L 132.984,74.0772z"/>
    <path style="fill: #ffffff" d="M 111.958 64.9628 L 116.902,63.3308 L 128.861,67.8832 L 134.215,66.6234 L 131.342,70.7846 L 117.313,70.7846 L 123.096,69.5343 L 111.958,64.9628z"/>
    <path style="fill: #ffffff" d="M 156.461 79.0591 L 151.537,80.7102 L 139.998,75.7378 L 134.215,77.3889 L 137.097,73.266 L 151.537,73.266 L 145.352,74.4971 L 156.461,79.0591z"/>
    <path style="fill: none; fill-opacity:0; stroke-width: 0.02; stroke: #aae6ff" d="M 100.01 71.6053 L 100.01,88.1448"/>
    <path style="fill: none; fill-opacity:0; stroke-width: 0.02; stroke: #aae6ff" d="M 167.599 71.6053 L 167.599,88.1448"/>
  </g>
  <g>
    <path style="fill: none; fill-opacity:0; stroke-width: 0.8; stroke: #00aed9" d="M 535.461 63.0348 L 535.461,32.7912"/>
    <path style="fill: none; fill-opacity:0; stroke-width: 4; stroke: #00aed9" d="M 535.461 62.5468 L 535.461,41.8014"/>
    <path style="fill: #000000" d="M 536.339 35.6973 L 534.49,35.6973 L 534.49,32 L 536.339,32 L 536.339,35.6973z"/>
    <path style="fill: none; fill-opacity:0; stroke-width: 2; stroke: #00aed9" d="M 536.339 35.6973 L 534.49,35.6973 L 534.49,32 L 536.339,32 L 536.339,35.6973"/>
    <path style="fill: none; fill-opacity:0; stroke-width: 0.8; stroke: #00aed9" d="M 490.631 63.0348 L 490.631,32.7912"/>
    <path style="fill: none; fill-opacity:0; stroke-width: 4; stroke: #00aed9" d="M 490.631 62.5468 L 490.631,41.8014"/>
    <path style="fill: #000000" d="M 491.51 35.6973 L 489.661,35.6973 L 489.661,32 L 491.51,32 L 491.51,35.6973z"/>
    <path style="fill: none; fill-opacity:0; stroke-width: 2; stroke: #00aed9" d="M 491.51 35.6973 L 489.661,35.6973 L 489.661,32 L 491.51,32 L 491.51,35.6973"/>
    <path style="fill: #00aed9" d="M 548 66.8744 C 548,74.1765 532.778,80.0958 514,80.0958 C 495.222,80.0958 480,74.1765 480,66.8744 L 480,86.2406 C 480,93.5446 495.222,99.4639 514,99.4639 C 532.778,99.4639 548,93.5446 548,86.2406 L 548,66.8744z"/>
    <path style="fill: none; fill-opacity:0; stroke-width: 0.8; stroke: #ffffff" d="M 548 66.8744 C 548,74.1765 532.778,80.0958 514,80.0958 C 495.222,80.0958 480,74.1765 480,66.8744 L 480,86.2406 C 480,93.5446 495.222,99.4639 514,99.4639 C 532.778,99.4639 548,93.5446 548,86.2406 L 548,66.8744"/>
    <path style="fill: #00aed9" d="M 514 80.0958 C 532.778,80.0958 548,74.1765 548,66.8744 C 548,59.5705 532.778,53.6512 514,53.6512 C 495.222,53.6512 480,59.5705 480,66.8744 C 480,74.1765 495.222,80.0958 514,80.0958z"/>
    <path style="fill: none; fill-opacity:0; stroke-width: 0.8; stroke: #ffffff" d="M 514 80.0958 C 532.778,80.0958 548,74.1765 548,66.8744 C 548,59.5705 532.778,53.6512 514,53.6512 C 495.222,53.6512 480,59.5705 480,66.8744 C 480,74.1765 495.222,80.0958 514,80.0958"/>
    <path style="fill: #ffffff" d="M 506.236 61.7038 L 509.044,65.915 L 498.429,68.3681 L 500.747,66.4381 L 484.341,63.6338 L 488.457,60.5484 L 504.287,63.2289 L 506.236,61.7038z"/>
    <path style="fill: #ffffff" d="M 521.175 71.9156 L 519.258,67.575 L 528.832,65.6617 L 527.171,67.148 L 543.131,69.8747 L 539.304,72.9379 L 523.437,69.9598 L 521.175,71.9156z"/>
    <path style="fill: #ffffff" d="M 515.937 59.4041 L 526.663,56.4685 L 526.789,61.066 L 524.11,60.5539 L 518.873,64.8945 L 513.88,64.1662 L 519.282,59.9199 L 515.937,59.4041z"/>
    <path style="fill: #ffffff" d="M 511.342 75.8754 L 501.13,77.7887 L 500.747,73.0673 L 503.681,73.7032 L 509.303,68.9023 L 514.279,69.7453 L 508.278,74.9806 L 511.342,75.8754z"/>
  </g>
  <g>
    <path style="fill: #c9c9b6" d="M 1147.32 83.9557 L 1181.86,83.9557 L 1167.33,98.5255 L 1132.8,98.5255 L 1147.32,83.9557z"/>
    <path style="fill: none; fill-opacity:0; stroke-width: 0.02; stroke: #494936" d="M 1147.32 83.9557 L 1181.86,83.9557 L 1167.33,98.5255 L 1132.8,98.5255 L 1147.32,83.9557"/>
    <path style="fill: none; fill-opacity:0; stroke-width: 0.02; stroke: #dbdbce" d="M 1148.65 96.0643 L 1148.65,96.1419 L 1148.66,96.2054 L 1148.68,96.29 L 1148.71,96.3746 L 1148.75,96.4381 L 1148.8,96.5157 L 1148.86,96.5862 L 1148.93,96.6496 L 1148.99,96.7272 L 1149.08,96.8048 L 1149.16,96.8683 L 1149.25,96.9247 L 1149.36,96.9811 L 1149.46,97.0446 L 1149.58,97.0939 L 1149.7,97.1574 L 1149.82,97.2068 L 1149.97,97.2561 L 1150.11,97.2984 L 1150.24,97.3408 L 1150.39,97.3831 L 1150.54,97.4254 L 1150.69,97.4465 L 1150.86,97.4748 L 1151.02,97.4889 L 1151.19,97.5171 L 1151.35,97.5382 L 1151.52,97.5594 L 1151.7,97.5664 L 1151.87,97.5735 L 1152.04,97.5735"/>
    <path style="fill: none; fill-opacity:0; stroke-width: 0.02; stroke: #dbdbce" d="M 1151.66 97.5735 L 1151.83,97.5735 L 1152,97.5664 L 1152.16,97.5523 L 1152.33,97.5312 L 1152.5,97.5171 L 1152.65,97.4889 L 1152.81,97.4748 L 1152.97,97.4395 L 1153.12,97.4042 L 1153.27,97.3619 L 1153.41,97.3196 L 1153.55,97.2773 L 1153.68,97.2279 L 1153.81,97.1786 L 1153.92,97.1292 L 1154.04,97.0728 L 1154.15,97.0093 L 1154.25,96.9529 L 1154.35,96.8824 L 1154.44,96.8118 L 1154.51,96.7413 L 1154.58,96.6779 L 1154.65,96.6003 L 1154.7,96.5227 L 1154.75,96.4592 L 1154.8,96.3817 L 1154.82,96.29 L 1154.84,96.2124 L 1154.86,96.1419 L 1154.87,96.0643"/>
    <path style="fill: none; fill-opacity:0; stroke-width: 0.02; stroke: #dbdbce" d="M 1152.41 93.2364 L 1152.24,93.2364 L 1152.07,93.2434 L 1151.89,93.2434 L 1151.74,93.2575 L 1151.57,93.2787 L 1151.4,93.2928 L 1151.23,93.3069 L 1151.07,93.3422 L 1150.92,93.3704 L 1150.77,93.3915 L 1150.62,93.4268 L 1150.47,93.4691 L 1150.34,93.5044 L 1150.21,93.5467 L 1150.08,93.6031 L 1149.94,93.6454 L 1149.85,93.6948 L 1149.73,93.7371 L 1149.63,93.7935 L 1149.54,93.857 L 1149.45,93.9134 L 1149.37,93.9628 L 1149.3,94.0262 L 1149.24,94.0897 L 1149.18,94.1602 L 1149.13,94.2237 L 1149.1,94.2801 L 1149.06,94.3506 L 1149.04,94.4071 L 1149.03,94.4846 L 1149.03,94.541"/>
    <path style="fill: none; fill-opacity:0; stroke-width: 0.02; stroke: #dbdbce" d="M 1155.23 94.541 L 1155.23,94.4776 L 1155.23,94.4071 L 1155.2,94.3436 L 1155.17,94.266 L 1155.13,94.2096 L 1155.08,94.132 L 1155.02,94.0756 L 1154.97,94.0051 L 1154.88,93.9557 L 1154.82,93.8852 L 1154.73,93.8288 L 1154.62,93.7794 L 1154.53,93.7089 L 1154.42,93.6736 L 1154.31,93.6172 L 1154.18,93.5608 L 1154.05,93.5185 L 1153.91,93.4762 L 1153.78,93.4409 L 1153.64,93.4127 L 1153.49,93.3774 L 1153.34,93.3422 L 1153.19,93.321 L 1153.03,93.2928 L 1152.88,93.2787 L 1152.72,93.2575 L 1152.55,93.2434 L 1152.37,93.2434 L 1152.2,93.2364 L 1152.04,93.2364"/>
    <path style="fill: #a5a585" d="M 1132.8 100.035 L 1167.33,100.035 L 1167.33,98.5255 L 1132.8,98.5255 L 1132.8,100.035z"/>
    <path style="fill: none; fill-opacity:0; stroke-width: 0.02; stroke: #494936" d="M 1132.8 100.035 L 1167.33,100.035 L 1167.33,98.5255 L 1132.8,98.5255 L 1132.8,100.035"/>
    <path style="fill: #a5a585" d="M 1147.32 83.9557 L 1181.86,83.9557 L 1181.86,60.3309 L 1147.32,60.3309 L 1147.32,83.9557z"/>
    <path style="fill: none; fill-opacity:0; stroke-width: 0.02; stroke: #494936" d="M 1147.32 83.9557 L 1181.86,83.9557 L 1181.86,60.3309 L 1147.32,60.3309 L 1147.32,83.9557"/>
    <path style="fill: #7a7a5a" d="M 1182.8 83.0248 L 1182.8,59.4 L 1181.86,60.3309 L 1181.86,83.9557 L 1182.8,83.0248z"/>
    <path style="fill: none; fill-opacity:0; stroke-width: 0.02; stroke: #494936" d="M 1182.8 83.0248 L 1182.8,59.4 L 1181.86,60.3309 L 1181.86,83.9557 L 1182.8,83.0248"/>
    <path style="fill: #ffffff" d="M 1149.03 82.4536 L 1180.16,82.4536 L 1180.16,62.2279 L 1149.03,62.2279 L 1149.03,82.4536z"/>
    <path style="fill: none; fill-opacity:0; stroke-width: 0.02; stroke: #494936" d="M 1149.03 82.4536 L 1180.16,82.4536 L 1180.16,62.2279 L 1149.03,62.2279 L 1149.03,82.4536"/>
    <path style="fill: #93936c" d="M 1149.03 85.0982 L 1178.08,85.0982 L 1170.53,92.6652 L 1141.48,92.6652 L 1149.03,85.0982z"/>
    <path style="fill: none; fill-opacity:0; stroke-width: 0.02; stroke: #494936" d="M 1149.03 85.0982 L 1178.08,85.0982 L 1170.53,92.6652 L 1141.48,92.6652 L 1149.03,85.0982"/>
    <path style="fill: #7a7a5a" d="M 1153.55 95.5848 L 1153.55,95.5425 L 1153.54,95.5001 L 1153.53,95.4578 L 1153.51,95.4085 L 1153.51,95.3661 L 1153.48,95.3309 L 1153.46,95.2886 L 1153.43,95.2604 L 1153.39,95.2181 L 1153.37,95.1757 L 1153.34,95.1405 L 1153.29,95.1052 L 1153.25,95.0629 L 1153.2,95.0276 L 1153.16,95.0065 L 1153.11,94.9712 L 1153.05,94.943 L 1152.99,94.9219 L 1152.94,94.8866 L 1152.88,94.8725 L 1152.81,94.8443 L 1152.76,94.8302 L 1152.69,94.809 L 1152.62,94.7949 L 1152.55,94.7808 L 1152.48,94.7597 L 1152.41,94.7526 L 1152.35,94.7526 L 1152.28,94.7456 L 1152.19,94.7456 L 1152.14,94.7456 L 1152.14,94.7456 L 1152.06,94.7456 L 1151.98,94.7456 L 1151.92,94.7526 L 1151.85,94.7526 L 1151.78,94.7597 L 1151.71,94.7808 L 1151.64,94.7949 L 1151.57,94.809 L 1151.51,94.8302 L 1151.45,94.8443 L 1151.39,94.8725 L 1151.32,94.8866 L 1151.27,94.9219 L 1151.21,94.943 L 1151.16,94.9712 L 1151.11,95.0065 L 1151.07,95.0276 L 1151.02,95.0629 L 1150.97,95.1052 L 1150.94,95.1405 L 1150.89,95.1757 L 1150.87,95.2181 L 1150.83,95.2604 L 1150.8,95.2886 L 1150.78,95.3309 L 1150.76,95.3661 L 1150.75,95.4085 L 1150.74,95.4578 L 1150.73,95.5001 L 1150.71,95.5425 L 1150.71,95.5848 L 1150.71,95.5848 L 1150.71,95.6341 L 1150.73,95.6764 L 1150.74,95.7188 L 1150.75,95.7611 L 1150.76,95.8034 L 1150.78,95.8386 L 1150.8,95.888 L 1150.83,95.9233 L 1150.87,95.9656 L 1150.89,95.9938 L 1150.94,96.0361 L 1150.97,96.0714 L 1151.02,96.1137 L 1151.07,96.1419 L 1151.11,96.1701 L 1151.16,96.2054 L 1151.21,96.2336 L 1151.27,96.2547 L 1151.32,96.29 L 1151.39,96.3041 L 1151.45,96.3323 L 1151.51,96.3464 L 1151.57,96.3676 L 1151.64,96.3817 L 1151.71,96.3958 L 1151.78,96.4099 L 1151.85,96.424 L 1151.92,96.424 L 1151.98,96.424 L 1152.06,96.431 L 1152.14,96.431 L 1152.14,96.431 L 1152.19,96.431 L 1152.28,96.424 L 1152.35,96.424 L 1152.41,96.424 L 1152.48,96.4099 L 1152.55,96.3958 L 1152.62,96.3817 L 1152.69,96.3676 L 1152.76,96.3464 L 1152.81,96.3323 L 1152.88,96.3041 L 1152.94,96.29 L 1152.99,96.2547 L 1153.05,96.2336 L 1153.11,96.2054 L 1153.16,96.1701 L 1153.2,96.1419 L 1153.25,96.1137 L 1153.29,96.0714 L 1153.34,96.0361 L 1153.37,95.9938 L 1153.39,95.9656 L 1153.43,95.9233 L 1153.46,95.888 L 1153.48,95.8386 L 1153.51,95.8034 L 1153.51,95.7611 L 1153.53,95.7188 L 1153.54,95.6764 L 1153.55,95.6341 L 1153.55,95.5848z"/>
    <path style="fill: none; fill-opacity:0; stroke-width: 0.02; stroke: #dbdbce" d="M 1153.36 95.5001 L 1153.36,95.4578 L 1153.36,95.4155 L 1153.36,95.3803 L 1153.34,95.352 L 1153.32,95.2956 L 1153.31,95.2745 L 1153.28,95.2322 L 1153.25,95.1898 L 1153.23,95.1616 L 1153.2,95.1334 L 1153.16,95.1052 L 1153.12,95.0559 L 1153.08,95.0276 L 1153.04,95.0065 L 1153,94.9712 L 1152.95,94.943 L 1152.91,94.9289 L 1152.86,94.8937 L 1152.81,94.8795 L 1152.74,94.8513 L 1152.69,94.8372 L 1152.62,94.8231 L 1152.57,94.802 L 1152.5,94.7879 L 1152.44,94.7808 L 1152.37,94.7597 L 1152.31,94.7526 L 1152.24,94.7456 L 1152.18,94.7456 L 1152.11,94.7456 L 1152.05,94.7456 L 1152.05,94.7456 L 1151.97,94.7456 L 1151.91,94.7456 L 1151.84,94.7456 L 1151.78,94.7526 L 1151.71,94.7597 L 1151.66,94.7808 L 1151.58,94.7879 L 1151.52,94.802 L 1151.47,94.8231 L 1151.4,94.8372 L 1151.35,94.8513 L 1151.28,94.8795 L 1151.24,94.8937 L 1151.18,94.9289 L 1151.14,94.943 L 1151.09,94.9712 L 1151.04,95.0065 L 1151,95.0276 L 1150.96,95.0559 L 1150.92,95.1052 L 1150.89,95.1334 L 1150.86,95.1616 L 1150.83,95.1898 L 1150.81,95.2322 L 1150.78,95.2745 L 1150.77,95.2956 L 1150.75,95.352 L 1150.74,95.3803 L 1150.73,95.4155 L 1150.73,95.4578 L 1150.73,95.5001 L 1150.73,95.5001 L 1150.73,95.5354 L 1150.73,95.5777 L 1150.74,95.62 L 1150.75,95.6412 L 1150.77,95.6835 L 1150.78,95.7258 L 1150.81,95.7611 L 1150.83,95.7963 L 1150.86,95.8386 L 1150.89,95.8598 L 1150.92,95.8951 L 1150.96,95.9303 L 1151,95.9656 L 1151.04,95.9867 L 1151.09,96.022 L 1151.14,96.0432 L 1151.18,96.0714 L 1151.24,96.0996 L 1151.28,96.1137 L 1151.35,96.1419 L 1151.4,96.163 L 1151.47,96.1701 L 1151.52,96.1913 L 1151.58,96.2054 L 1151.66,96.2124 L 1151.71,96.2336 L 1151.78,96.2477 L 1151.84,96.2477 L 1151.91,96.2477 L 1151.97,96.2477 L 1152.05,96.2477 L 1152.05,96.2477 L 1152.11,96.2477 L 1152.18,96.2477 L 1152.24,96.2477 L 1152.31,96.2477 L 1152.37,96.2336 L 1152.44,96.2124 L 1152.5,96.2054 L 1152.57,96.1913 L 1152.62,96.1701 L 1152.69,96.163 L 1152.74,96.1419 L 1152.81,96.1137 L 1152.86,96.0996 L 1152.91,96.0714 L 1152.95,96.0432 L 1153,96.022 L 1153.04,95.9867 L 1153.08,95.9656 L 1153.12,95.9303 L 1153.16,95.8951 L 1153.2,95.8598 L 1153.23,95.8386 L 1153.25,95.7963 L 1153.28,95.7611 L 1153.31,95.7258 L 1153.32,95.6835 L 1153.34,95.6412 L 1153.36,95.62 L 1153.36,95.5777 L 1153.36,95.5354 L 1153.36,95.5001"/>
    <path style="fill: none; fill-opacity:0; stroke-width: 0.02; stroke: #626248" d="M 1148.84 96.2477 L 1148.84,96.3323 L 1148.86,96.3958 L 1148.89,96.4733 L 1148.91,96.558 L 1148.95,96.6285 L 1148.99,96.692 L 1149.06,96.7695 L 1149.12,96.8471 L 1149.19,96.9106 L 1149.26,96.9811 L 1149.35,97.0446 L 1149.44,97.1151 L 1149.55,97.1715 L 1149.65,97.2279 L 1149.77,97.2773 L 1149.89,97.3408 L 1150.02,97.3901 L 1150.14,97.4395 L 1150.3,97.4818 L 1150.44,97.5241 L 1150.59,97.5735 L 1150.73,97.6087 L 1150.89,97.6299 L 1151.04,97.6581 L 1151.21,97.6863 L 1151.38,97.7004 L 1151.54,97.7286 L 1151.71,97.7427 L 1151.88,97.7498 L 1152.05,97.7498 L 1152.22,97.7498"/>
    <path style="fill: none; fill-opacity:0; stroke-width: 0.02; stroke: #626248" d="M 1151.84 97.7498 L 1152.02,97.7498 L 1152.18,97.7498 L 1152.36,97.7357 L 1152.51,97.7145 L 1152.67,97.7004 L 1152.84,97.6863 L 1152.99,97.6581 L 1153.15,97.6228 L 1153.29,97.5876 L 1153.45,97.5594 L 1153.6,97.5171 L 1153.73,97.4748 L 1153.86,97.4254 L 1153.99,97.3619 L 1154.12,97.3126 L 1154.22,97.2561 L 1154.34,97.1997 L 1154.44,97.1292 L 1154.53,97.0728 L 1154.62,96.9952 L 1154.7,96.9388 L 1154.77,96.8683 L 1154.84,96.7836 L 1154.88,96.7061 L 1154.94,96.6426 L 1154.97,96.558 L 1155.01,96.4804 L 1155.04,96.3958 L 1155.04,96.3323 L 1155.05,96.2477"/>
    <path style="fill: none; fill-opacity:0; stroke-width: 0.02; stroke: #626248" d="M 1152.6 93.4197 L 1152.43,93.4197 L 1152.26,93.4268 L 1152.09,93.4268 L 1151.93,93.4409 L 1151.75,93.4621 L 1151.58,93.4691 L 1151.43,93.4973 L 1151.26,93.5185 L 1151.11,93.5608 L 1150.96,93.5749 L 1150.81,93.6172 L 1150.67,93.6454 L 1150.53,93.6948 L 1150.4,93.7371 L 1150.28,93.7794 L 1150.14,93.8217 L 1150.04,93.8711 L 1149.92,93.9205 L 1149.82,93.9839 L 1149.73,94.0403 L 1149.65,94.0897 L 1149.56,94.1602 L 1149.48,94.2096 L 1149.43,94.266 L 1149.37,94.3436 L 1149.32,94.4 L 1149.28,94.4705 L 1149.25,94.5269 L 1149.23,94.5904 L 1149.22,94.668 L 1149.22,94.7385"/>
    <path style="fill: none; fill-opacity:0; stroke-width: 0.02; stroke: #626248" d="M 1155.43 94.7385 L 1155.42,94.6609 L 1155.41,94.5904 L 1155.4,94.5269 L 1155.36,94.4564 L 1155.32,94.3929 L 1155.27,94.3224 L 1155.21,94.266 L 1155.15,94.2025 L 1155.08,94.132 L 1154.99,94.0756 L 1154.91,94.0121 L 1154.82,93.9557 L 1154.7,93.9063 L 1154.61,93.857 L 1154.49,93.8076 L 1154.37,93.7512 L 1154.25,93.7089 L 1154.11,93.6736 L 1153.96,93.6313 L 1153.82,93.6031 L 1153.68,93.5608 L 1153.53,93.5326 L 1153.38,93.5044 L 1153.21,93.4762 L 1153.06,93.4621 L 1152.9,93.4409 L 1152.73,93.4268 L 1152.55,93.4268 L 1152.4,93.4197 L 1152.22,93.4197"/>
    <path style="fill: #7a7a5a" d="M 1181.86 85.2815 L 1167.33,99.8513 L 1167.33,98.5255 L 1181.86,83.9557 L 1181.86,85.2815z"/>
    <path style="fill: none; fill-opacity:0; stroke-width: 0.02; stroke: #494936" d="M 1181.86 85.2815 L 1167.33,99.8513 L 1167.33,98.5255 L 1181.86,83.9557 L 1181.86,85.2815"/>
    <path style="fill: #7a7a5a" d="M 1176.95 82.8415 L 1176.95,83.2011 L 1179.78,83.2011 L 1179.78,82.8415 L 1176.95,82.8415z"/>
    <path style="fill: none; fill-opacity:0; stroke-width: 0.02; stroke: #494936" d="M 1176.95 82.8415 L 1176.95,83.2011 L 1179.78,83.2011 L 1179.78,82.8415 L 1176.95,82.8415"/>
    <path style="fill: none; fill-opacity:0; stroke-width: 0.02; stroke: #000000" d="M 1176.18 86.9882 L 1147.32,86.9882"/>
    <path style="fill: none; fill-opacity:0; stroke-width: 0.02; stroke: #000000" d="M 1174.3 88.8852 L 1145.44,88.8852"/>
    <path style="fill: none; fill-opacity:0; stroke-width: 0.02; stroke: #000000" d="M 1172.42 90.7752 L 1143.55,90.7752"/>
    <path style="fill: #c9c9b6" d="M 1148.27 59.4 L 1182.8,59.4 L 1181.86,60.3309 L 1147.32,60.3309 L 1148.27,59.4z"/>
    <path style="fill: none; fill-opacity:0; stroke-width: 0.02; stroke: #494936" d="M 1148.27 59.4 L 1182.8,59.4 L 1181.86,60.3309 L 1147.32,60.3309 L 1148.27,59.4"/>
  </g>
  <text font-size="12.8" style="fill: #000000;text-anchor:start;font-family:sans-serif;font-style:normal;font-weight:normal" x="120" y="30">
    <tspan x="120" y="30">ISP</tspan>
  </text>
  <text font-size="12.8" style="fill: #000000;text-anchor:start;font-family:sans-serif;font-style:normal;font-weight:normal" x="500" y="30">
    <tspan x="500" y="30">CPE</tspan>
  </text>
  <text font-size="12.8" style="fill: #000000;text-anchor:start;font-family:sans-serif;font-style:normal;font-weight:normal" x="1132.4" y="30">
    <tspan x="1132.4" y="30">Laptop</tspan>
  </text>
  <g>
    <line style="fill: none; fill-opacity:0; stroke-width: 2; stroke: #000000" x1="133.995" y1="100.151" x2="134" y2="989"/>
    <polygon style="fill: #000000" points="129,989 134,999 139,989 "/>
    <polygon style="fill: none; fill-opacity:0; stroke-width: 2; stroke: #000000" points="129,989 134,999 139,989 "/>
  </g>
  <g>
    <line style="fill: none; fill-opacity:0; stroke-width: 2; stroke: #000000" x1="514" y1="99.4638" x2="514" y2="989"/>
    <polygon style="fill: #000000" points="509,989 514,999 519,989 "/>
    <polygon style="fill: none; fill-opacity:0; stroke-width: 2; stroke: #000000" points="509,989 514,999 519,989 "/>
  </g>
  <g>
    <line style="fill: none; fill-opacity:0; stroke-width: 2; stroke: #000000" x1="1150.06" y1="100.035" x2="1150" y2="989"/>
    <polygon style="fill: #000000" points="1145,989 1150,999 1155,989 "/>
    <polygon style="fill: none; fill-opacity:0; stroke-width: 2; stroke: #000000" points="1145,989 1150,999 1155,989 "/>
  </g>
  <g>
    <rect style="fill: #ffffff" x="360" y="140" width="370.4" height="86"/>
    <rect style="fill: none; fill-opacity:0; stroke-width: 2; stroke: #000000" x="360" y="140" width="370.4" height="86"/>
    <text font-size="12.8" style="fill: #000000;text-anchor:start;font-family:sans-serif;font-style:normal;font-weight:normal" x="369" y="163.8">
      <tspan x="369" y="163.8">1. CPE starter opp WAN-grensesnittet</tspan>
      <tspan x="369" y="179.8">2. CPE genererer linklokal adresse for WAN-grensesnittet</tspan>
      <tspan x="369" y="195.8">3. CPE bekrefter at linklocal adresse er unik ved hjelp av DAD</tspan>
      <tspan x="369" y="211.8">4. CPE sender DHCPv6-forespørsel på WAN-grensesnittet</tspan>
    </text>
  </g>
  <g>
    <rect style="fill: #ffffff" x="0" y="260" width="257.65" height="54"/>
    <rect style="fill: none; fill-opacity:0; stroke-width: 2; stroke: #000000" x="0" y="260" width="257.65" height="54"/>
    <text font-size="12.8" style="fill: #000000;text-anchor:start;font-family:sans-serif;font-style:normal;font-weight:normal" x="9" y="283.8">
      <tspan x="9" y="283.8">5. ISP mottar DHCPv6-forespørsel</tspan>
      <tspan x="9" y="299.8">6. ISP sender tilbake forslag til parameter</tspan>
    </text>
  </g>
  <g>
    <rect style="fill: #ffffff" x="360" y="340" width="240.2" height="54"/>
    <rect style="fill: none; fill-opacity:0; stroke-width: 2; stroke: #000000" x="360" y="340" width="240.2" height="54"/>
    <text font-size="12.8" style="fill: #000000;text-anchor:start;font-family:sans-serif;font-style:normal;font-weight:normal" x="369" y="363.8">
      <tspan x="369" y="363.8">7. CPE mottar forslag til parameter</tspan>
      <tspan x="369" y="379.8">8. CPE ber om de foreslåtte parameter</tspan>
    </text>
  </g>
  <g>
    <rect style="fill: #ffffff" x="0" y="420" width="319" height="54"/>
    <rect style="fill: none; fill-opacity:0; stroke-width: 2; stroke: #000000" x="0" y="420" width="319" height="54"/>
    <text font-size="12.8" style="fill: #000000;text-anchor:start;font-family:sans-serif;font-style:normal;font-weight:normal" x="9" y="443.8">
      <tspan x="9" y="443.8">9. ISP mottar forespørsel med foreslåtte parameter</tspan>
      <tspan x="9" y="459.8">10. ISP allokerer IPv6-adresse og sender bekreftelse</tspan>
    </text>
  </g>
  <g>
    <rect style="fill: #ffffff" x="360" y="500" width="518.25" height="70"/>
    <rect style="fill: none; fill-opacity:0; stroke-width: 2; stroke: #000000" x="360" y="500" width="518.25" height="70"/>
    <text font-size="12.8" style="fill: #000000;text-anchor:start;font-family:sans-serif;font-style:normal;font-weight:normal" x="369" y="523.8">
      <tspan x="369" y="523.8">11. CPE setter avtalt IPv6-adresse og andre mottatte parametere på WAN-grensesnittet</tspan>
      <tspan x="369" y="539.8">12. CPE bekrefter at IPv6-adressa er unik ved hjelp av DAD</tspan>
      <tspan x="369" y="555.8">13. CPE sender ut DHCPv6-forespørsel om prefix delegation </tspan>
    </text>
  </g>
  <g>
    <rect style="fill: #ffffff" x="0" y="600" width="290.9" height="54"/>
    <rect style="fill: none; fill-opacity:0; stroke-width: 2; stroke: #000000" x="0" y="600" width="290.9" height="54"/>
    <text font-size="12.8" style="fill: #000000;text-anchor:start;font-family:sans-serif;font-style:normal;font-weight:normal" x="9" y="623.8">
      <tspan x="9" y="623.8">14. ISP mottar forespørsel om prefix delegation</tspan>
      <tspan x="9" y="639.8">15. ISP sender tilbake forslag om prefiks</tspan>
    </text>
  </g>
  <g>
    <rect style="fill: #ffffff" x="360" y="660" width="241.9" height="54"/>
    <rect style="fill: none; fill-opacity:0; stroke-width: 2; stroke: #000000" x="360" y="660" width="241.9" height="54"/>
    <text font-size="12.8" style="fill: #000000;text-anchor:start;font-family:sans-serif;font-style:normal;font-weight:normal" x="369" y="683.8">
      <tspan x="369" y="683.8">16. CPE mottar forslag om prefiks</tspan>
      <tspan x="369" y="699.8">17. CPE ber om det foreslåtte prefikset</tspan>
    </text>
  </g>
  <g>
    <rect style="fill: #ffffff" x="0" y="740" width="335.6" height="54"/>
    <rect style="fill: none; fill-opacity:0; stroke-width: 2; stroke: #000000" x="0" y="740" width="335.6" height="54"/>
    <text font-size="12.8" style="fill: #000000;text-anchor:start;font-family:sans-serif;font-style:normal;font-weight:normal" x="9" y="763.8">
      <tspan x="9" y="763.8">18. ISP mottar forespørsel med foreslått prefiks.</tspan>
      <tspan x="9" y="779.8">19. ISP allokerer prefikset og sender tilbake bekreftelse</tspan>
    </text>
  </g>
  <g>
    <rect style="fill: #ffffff" x="360" y="820" width="566.35" height="54"/>
    <rect style="fill: none; fill-opacity:0; stroke-width: 2; stroke: #000000" x="360" y="820" width="566.35" height="54"/>
    <text font-size="12.8" style="fill: #000000;text-anchor:start;font-family:sans-serif;font-style:normal;font-weight:normal" x="369" y="843.8">
      <tspan x="369" y="843.8">20. CPE setter avtalt prefiks på LAN- og WiFi-grensesnittene</tspan>
      <tspan x="369" y="859.8">21. CPE begynner å sende ut regelmessige routerannonseringer på LAN- og WiFi-grensesnittene</tspan>
    </text>
  </g>
  <g>
    <rect style="fill: #ffffff" x="960" y="900" width="399.55" height="70"/>
    <rect style="fill: none; fill-opacity:0; stroke-width: 2; stroke: #000000" x="960" y="900" width="399.55" height="70"/>
    <text font-size="12.8" style="fill: #000000;text-anchor:start;font-family:sans-serif;font-style:normal;font-weight:normal" x="969" y="923.8">
      <tspan x="969" y="923.8">22. Laptop oppdager routerannonseringene</tspan>
      <tspan x="969" y="939.8">23. Laptop stiller seg inn i tråd med annonserte verdier</tspan>
      <tspan x="969" y="955.8">24. Laptop kan nå sende IPv6-trafikk ut i verden og motta svarene</tspan>
    </text>
  </g>
  <text font-size="12.8" style="fill: #000000;text-anchor:end;font-family:sans-serif;font-style:normal;font-weight:normal" x="1360" y="1020">
    <tspan x="1360" y="1020">$Ximalas$</tspan>
  </text>
</svg>
